<svg xmlns="http://www.w3.org/2000/svg" viewBox="0 0 274.04688 439.56641"><defs><style>.cls-1,.cls-3{fill:#231f20;}.cls-1,.cls-2{stroke:#231f20;stroke-miterlimit:10;stroke-width:8px;}.cls-2{fill:#fff;}.cls-4{fill:#2f8068;}.cls-5{fill:#5cc19e;}</style></defs><title>bpmoziAsset 1</title><g id="Layer_2" data-name="Layer 2"><g id="Layer_3" data-name="Layer 3"><path class="cls-1" d="M236.06319,219.50787c-20.73121,2.1976-28.43575,13.37831-46.53561,13.315a47.255,47.255,0,0,1-19.00613-4.20109,5.97315,5.97315,0,0,0-8.32961,5.50691V334.95859a5.95659,5.95659,0,0,0,3.00848,5.19824c8.86143,4.97841,17.01026,6.83855,24.32726,6.86415,18.09986.06334,25.8044-11.11737,46.53561-13.315a73.10451,73.10451,0,0,1,26.40853,2.30762,5.99985,5.99985,0,0,0,7.57515-5.77137V228.496a6.00357,6.00357,0,0,0-4.26754-5.73919A74.94116,74.94116,0,0,0,236.06319,219.50787Z"/><path class="cls-2" d="M236.06318,317.6695c-20.7312,2.19763-28.43573,13.3783-46.53559,13.315-8.13769-.0285-17.30432-2.32611-27.33575-8.65881v16.03644c10.03143,6.33276,19.19806,8.63037,27.33575,8.65881,18.09986.06336,25.80439-11.11737,46.53559-13.31494a74.28009,74.28009,0,0,1,28.554,2.90307,4.2266,4.2266,0,0,0,5.42971-4.04335v-10.24C260.27247,318.85981,248.5445,316.34644,236.06318,317.6695Z"/><path class="cls-2" d="M236.06318,219.50786c-20.7312,2.19764-28.43573,13.3783-46.53559,13.315-8.13769-.02851-17.30432-2.32611-27.33575-8.65882v16.03644c10.03143,6.33276,19.19806,8.63037,27.33575,8.65881,18.09986.06336,25.80439-11.11737,46.53559-13.31494,12.48132-1.32306,24.20929,1.19025,33.9837,4.65613V228.12458a5.51484,5.51484,0,0,0-3.91413-5.25935A75.14622,75.14622,0,0,0,236.06318,219.50786Z"/><polygon class="cls-3" points="175.625 329.237 175.625 347.021 184.611 347.021 184.611 330.627 175.625 329.237"/><polygon class="cls-3" points="184.611 247.828 184.611 229.9 175.625 229.9 175.625 244.937 184.611 247.828"/><polygon class="cls-3" points="202.532 246.519 202.532 229.9 193.547 229.9 193.547 249.648 202.532 246.519"/><polygon class="cls-3" points="193.547 329.27 193.547 347.021 202.532 347.021 202.532 327.498 193.547 329.27"/><polygon class="cls-3" points="211.419 325.604 211.419 340.344 220.404 340.344 220.404 323.034 211.419 325.604"/><polygon class="cls-3" points="220.404 240.743 220.404 223.455 211.419 223.455 211.419 243.508 220.404 240.743"/><polygon class="cls-3" points="234.936 236.27 238.276 236.296 238.276 219.149 229.29 219.149 229.29 238.008 234.936 236.27"/><polygon class="cls-3" points="229.29 320.493 229.29 334.566 238.276 334.566 238.276 317.923 229.29 320.493"/><polygon class="cls-3" points="256.148 236.431 256.148 219.149 247.162 219.149 247.162 236.363 256.148 236.431"/><polygon class="cls-3" points="247.162 318.288 247.162 335.455 256.148 335.455 256.148 319.59 247.162 318.288"/></g><g id="Layer_2-2" data-name="Layer 2"><path class="cls-4" d="M117.73969,55.70367A146.02207,146.02207,0,0,1,236.384,116.45612,118.21764,118.21764,0,0,0,0,115.21582,146.00626,146.00626,0,0,1,117.73969,55.70367Z"/><polygon class="cls-5" points="88.09 364.076 89.585 370.095 118.195 370.095 118.195 364.076 88.09 364.076"/><path class="cls-5" d="M85.53486,201.122l7.06384,37.92156a5.18461,5.18461,0,0,1-.23779,2.7577L86.965,256.30329a5.185,5.185,0,0,0-.3255,1.80817v99.48748c0,.15351.01441.30616.028.45875H118.195V201.122Z"/><path class="cls-5" d="M79.07569,189.08491l4.39032,4.962a5.17862,5.17862,0,0,1,.71619,1.05658H118.195v-6.01855Z"/><path class="cls-5" d="M73.945,183.06641H118.195V105.78864l-10.89679,2.90582a5.18518,5.18518,0,0,0-3.42987,2.96753l-4.74871,11.08027a5.1851,5.1851,0,0,0,.08642,4.27587l6.80054,14.24872a5.18509,5.18509,0,0,1-.88886,5.77124v.00006a5.18513,5.18513,0,0,1-7.60064-.021L70.41889,117.66077a5.18521,5.18521,0,0,1-1.32959-2.83166l-6.4776-48.582A5.18518,5.18518,0,0,1,64.77784,61.314l4.09442-2.86609a5.18506,5.18506,0,0,0,2.21167-4.2478V36.34071a5.18513,5.18513,0,0,0-8.20978-4.21155L48.79993,42.237a5.18524,5.18524,0,0,0-2.16046,4.21154v55.15461a5.18512,5.18512,0,0,0,.42688,2.0603l18.04779,41.68176a5.1911,5.1911,0,0,1,.29877.91467l8.04419,35.511A5.179,5.179,0,0,0,73.945,183.06641Z"/><path class="cls-5" d="M91.07954,376.11329l11.59442,46.6911a5.18532,5.18532,0,0,1-.23773,3.22388l-2.62659,6.37884a5.1851,5.1851,0,0,0,4.79455,7.1593H118.195V376.11329Z"/><path class="cls-4" d="M133.94,426.02827a5.18475,5.18475,0,0,1-.23773-3.22388l11.59442-46.6911H118.18116v63.45312H131.772a5.1851,5.1851,0,0,0,4.79456-7.1593Z"/><polygon class="cls-4" points="118.181 364.076 118.181 370.095 146.791 370.095 148.286 364.076 118.181 364.076"/><path class="cls-4" d="M144.01527,241.80122a5.18461,5.18461,0,0,1-.2378-2.7577l7.06385-37.92156H118.18116V358.05769h31.52759c.01355-.15259.028-.30524.028-.45875V258.11146a5.185,5.185,0,0,0-.3255-1.80817Z"/><path class="cls-4" d="M118.18116,189.08491v6.01855H152.194a5.17829,5.17829,0,0,1,.71612-1.05658l4.39032-4.962Z"/><path class="cls-4" d="M187.57624,42.237,173.502,32.12916a5.1851,5.1851,0,0,0-8.20972,4.21155V54.20008a5.1849,5.1849,0,0,0,2.21167,4.2478l4.09436,2.86609a5.18508,5.18508,0,0,1,2.1662,4.93311l-6.4776,48.582a5.18521,5.18521,0,0,1-1.32959,2.83166l-27.0982,29.35639a5.18515,5.18515,0,0,1-7.60065.021v-.00006a5.185,5.185,0,0,1-.88886-5.77124l6.80054-14.24872a5.18514,5.18514,0,0,0,.08637-4.27587L132.50782,111.662a5.18516,5.18516,0,0,0-3.42987-2.96753l-10.89679-2.90582v77.27777h44.25006a5.179,5.179,0,0,0,.48785-1.29553l8.04419-35.511a5.18615,5.18615,0,0,1,.29877-.91467l18.04779-41.68176a5.186,5.186,0,0,0,.42688-2.0603V46.44855A5.18524,5.18524,0,0,0,187.57624,42.237Z"/><rect class="cls-4" x="78.19502" y="201.12199" width="63.40741" height="157.14815" rx="5.35185"/><path class="cls-5" d="M99.23206,201.122h52.054a6.90582,6.90582,0,0,1,6.90582,6.90582v143.3365a6.90582,6.90582,0,0,1-6.90582,6.90582h-52.054a0,0,0,0,1,0,0V201.122A0,0,0,0,1,99.23206,201.122Z"/><rect class="cls-4" x="73.38021" y="189.08495" width="89.25926" height="8.01852" rx="4.00926"/><rect class="cls-4" x="73.38021" y="362.07625" width="89.25926" height="8.01852" rx="4.00926"/></g></g></svg>